<svg width="40" height="41" viewBox="0 0 40 41" fill="none" xmlns="http://www.w3.org/2000/svg">
<path d="M33.6544 22.6088C34.174 21.5708 34.4713 20.4338 34.5269 19.2719C34.5825 18.11 34.3953 16.9492 33.9773 15.8654C33.5594 14.7816 32.9201 13.799 32.1013 12.9818C31.2824 12.1647 30.3024 11.5312 29.2251 11.1228C28.8135 12.4925 28.1083 13.7536 27.1596 14.8163C28.0808 15.0055 28.9089 15.5111 29.5034 16.2472C30.098 16.9834 30.4224 17.9048 30.4216 18.8552C30.4208 19.8056 30.0948 20.7265 29.499 21.4616C28.9033 22.1968 28.0743 22.7009 27.1528 22.8885C26.2313 23.0761 25.274 22.9356 24.4433 22.4909C23.6125 22.0462 22.9595 21.3246 22.595 20.4486C22.2304 19.5725 22.1768 18.596 22.4433 17.6845C22.7097 16.7731 23.2798 15.9829 24.0568 15.448C25.3032 14.7262 26.3397 13.6852 27.062 12.4298C27.7843 11.1744 28.1669 9.74886 28.1713 8.29651C28.1758 6.84417 27.8019 5.41624 27.0873 4.15635C26.3727 2.89647 25.3426 1.84904 24.1006 1.11943C22.8585 0.389815 21.4484 0.00373792 20.012 2.70063e-05C18.5756 -0.0036839 17.1635 0.375103 15.9178 1.09829C14.6721 1.82148 13.6367 2.86356 12.9158 4.11974C12.1948 5.37592 11.8137 6.8019 11.8108 8.25425C11.8108 8.59858 11.8318 8.94258 11.8738 9.28429C13.2663 9.01947 14.6996 9.071 16.07 9.43514C15.803 8.49863 15.8719 7.49688 16.2644 6.60672C16.6569 5.71656 17.3479 4.99523 18.2153 4.57006C19.0827 4.1449 20.0707 4.04323 21.005 4.28301C21.9393 4.5228 22.7598 5.08861 23.3217 5.88057C23.8835 6.67254 24.1505 7.63972 24.0756 8.6114C24.0008 9.58308 23.5888 10.4968 22.9124 11.1912C22.236 11.8856 21.3387 12.3161 20.379 12.4066C19.4192 12.4972 18.4586 12.242 17.6669 11.6861C16.4773 10.8862 15.0588 10.5081 13.6338 10.6113C11.7178 10.6209 9.86597 11.3103 8.40118 12.5591C6.93639 13.8079 5.95164 15.537 5.61867 17.4448C5.28569 19.3526 5.62561 21.318 6.57916 22.9983C7.5327 24.6787 9.03936 25.9672 10.8364 26.6394C11.9436 27.0602 12.8666 27.8657 13.4402 28.9117C14.0139 29.9576 14.2007 31.1758 13.9672 32.3483C13.7338 33.5208 13.0953 34.5711 12.1661 35.3111C11.2368 36.0512 10.0775 36.4328 8.89542 36.3877C7.71337 36.3426 6.58577 35.8737 5.71437 35.0649C4.84297 34.2561 4.28464 33.1602 4.13928 31.9732C3.99393 30.7863 4.27103 29.5858 4.921 28.5865C5.57098 27.5872 6.55142 26.8544 7.68689 26.5191C6.55392 25.6164 5.63412 24.4698 4.99433 23.1627C3.13785 24.1103 1.6588 25.6728 0.803839 27.5896C-0.0511214 29.5064 -0.230312 31.6616 0.296152 33.6959C0.822616 35.7301 2.02291 37.5203 3.69686 38.768C5.37081 40.0157 7.41723 40.6455 9.49483 40.5523C11.5724 40.4591 13.5556 39.6485 15.1137 38.2558C16.6718 36.8631 17.7105 34.9724 18.0567 32.899C18.4029 30.8256 18.0356 28.6949 17.0161 26.8622C15.9966 25.0295 14.3864 23.6056 12.4542 22.828C11.729 22.607 11.0787 22.1867 10.5758 21.614C10.073 21.0412 9.73737 20.3384 9.60643 19.5841C9.4755 18.8297 9.55439 18.0534 9.83429 17.3418C10.1142 16.6301 10.5841 16.011 11.1916 15.5536C11.7992 15.0962 12.5204 14.8183 13.275 14.7511C14.0295 14.6839 14.7877 14.8299 15.465 15.1729C16.1423 15.5159 16.712 16.0423 17.1107 16.6936C17.5094 17.3448 17.7213 18.0952 17.7228 18.861C17.718 19.6787 17.4763 20.4771 17.0276 21.1574C16.5789 21.8377 15.9429 22.3701 15.1981 22.6889C16.3546 23.524 17.3336 24.5852 18.0772 25.8097C18.8018 25.3335 19.4477 24.7449 19.9911 24.0654C21.0924 25.4426 22.6016 26.4262 24.2969 26.8717C25.9922 27.3172 27.7841 27.2011 29.4092 26.5404C30.5334 26.1861 31.7451 26.2442 32.8309 26.7046C33.9168 27.165 34.8072 27.998 35.3452 29.057C35.8833 30.1159 36.0344 31.3329 35.7721 32.4935C35.5098 33.6541 34.8509 34.6839 33.9114 35.4014C32.9718 36.119 31.812 36.4784 30.6361 36.4162C29.4603 36.354 28.3438 35.8743 27.4835 35.0616C26.6231 34.2488 26.074 33.1551 25.9329 31.9732C25.7918 30.7912 26.0677 29.5969 26.712 28.6004C25.2711 28.6546 23.8367 28.379 22.5158 27.7943C22.1731 28.4496 21.8164 30.1514 21.8164 31.3629C21.8148 33.0615 22.2786 34.7273 23.1565 36.1755C24.0343 37.6237 25.2918 38.7977 26.7895 39.5671C28.2871 40.3366 29.9664 40.6715 31.6408 40.5346C33.3153 40.3977 34.9195 39.7945 36.2755 38.7918C37.6315 37.789 38.6861 36.426 39.3225 34.8541C39.9588 33.2821 40.152 31.5626 39.8805 29.8864C39.609 28.2101 38.8835 26.6427 37.7845 25.3581C36.6854 24.0735 35.2559 23.1218 33.6544 22.6088Z" fill="white"/>
</svg>
