<svg width="15" height="16" viewBox="0 0 15 16" fill="none" xmlns="http://www.w3.org/2000/svg">
<path d="M5.41904 8.46308C5.41904 8.27091 5.26317 8.11523 5.07085 8.11523H3.85581C3.66371 8.11523 3.50781 8.27091 3.50781 8.46308V9.67796C3.50781 9.87037 3.66371 10.0261 3.85581 10.0261H5.07085C5.26317 10.0261 5.41904 9.87037 5.41904 9.67796V8.46308Z" fill="#979797"/>
<path d="M8.45498 8.46308C8.45498 8.27091 8.29908 8.11523 8.10714 8.11523H6.89194C6.69984 8.11523 6.54395 8.27091 6.54395 8.46308V9.67796C6.54395 9.87037 6.69984 10.0261 6.89194 10.0261H8.10714C8.29908 10.0261 8.45498 9.87037 8.45498 9.67796V8.46308Z" fill="#979797"/>
<path d="M11.4923 8.46308C11.4923 8.27091 11.3364 8.11523 11.1443 8.11523H9.92924C9.73692 8.11523 9.58105 8.27091 9.58105 8.46308V9.67796C9.58105 9.87037 9.73692 10.0261 9.92924 10.0261H11.1443C11.3364 10.0261 11.4923 9.87037 11.4923 9.67796V8.46308Z" fill="#979797"/>
<path d="M5.41904 11.4999C5.41904 11.3074 5.26317 11.1519 5.07085 11.1519H3.85581C3.66371 11.1519 3.50781 11.3074 3.50781 11.4999V12.7145C3.50781 12.9068 3.66371 13.0625 3.85581 13.0625H5.07085C5.26317 13.0625 5.41904 12.9068 5.41904 12.7145V11.4999Z" fill="#979797"/>
<path d="M8.45498 11.4999C8.45498 11.3074 8.29908 11.1519 8.10714 11.1519H6.89194C6.69984 11.1519 6.54395 11.3074 6.54395 11.4999V12.7145C6.54395 12.9068 6.69984 13.0625 6.89194 13.0625H8.10714C8.29908 13.0625 8.45498 12.9068 8.45498 12.7145V11.4999Z" fill="#979797"/>
<path d="M11.4923 11.4999C11.4923 11.3074 11.3364 11.1519 11.1444 11.1519H9.92924C9.73692 11.1519 9.58105 11.3074 9.58105 11.4999V12.7145C9.58105 12.9068 9.73692 13.0625 9.92924 13.0625H11.1444C11.3364 13.0625 11.4923 12.9068 11.4923 12.7145V11.4999Z" fill="#979797"/>
<path d="M13.6649 1.70783V3.56347C13.6649 4.4022 12.9844 5.07808 12.1458 5.07808H11.1876C10.3489 5.07808 9.65951 4.4022 9.65951 3.56347V1.70117H5.34049V3.56347C5.34049 4.4022 4.65109 5.07808 3.81255 5.07808H2.85413C2.01556 5.07808 1.33518 4.4022 1.33518 3.56347V1.70783C0.602256 1.72993 0 2.33639 0 3.08182V13.9567C0 14.7162 0.615549 15.3399 1.37499 15.3399H13.625C14.3833 15.3399 15 14.7149 15 13.9567V3.08182C15 2.33639 14.3978 1.72993 13.6649 1.70783ZM13.2198 13.2795C13.2198 13.6077 12.9537 13.874 12.6254 13.874H2.34847C2.02014 13.874 1.75404 13.6077 1.75404 13.2795V7.66224C1.75404 7.33391 2.02011 7.06765 2.34847 7.06765H12.6253C12.9536 7.06765 13.2198 7.33391 13.2198 7.66224L13.2198 13.2795Z" fill="#979797"/>
<path d="M2.85104 4.0835H3.79887C4.08657 4.0835 4.31983 3.85058 4.31983 3.56288V0.520803C4.31983 0.233078 4.08657 0 3.79887 0H2.85104C2.56331 0 2.33008 0.233078 2.33008 0.520803V3.56288C2.33008 3.85058 2.56331 4.0835 2.85104 4.0835Z" fill="#979797"/>
<path d="M11.1752 4.0835H12.1231C12.4106 4.0835 12.6438 3.85058 12.6438 3.56288V0.520803C12.6439 0.233078 12.4106 0 12.1231 0H11.1752C10.8876 0 10.6543 0.233078 10.6543 0.520803V3.56288C10.6543 3.85058 10.8876 4.0835 11.1752 4.0835Z" fill="#979797"/>
</svg>
