<svg width="15" height="15" viewBox="0 0 15 15" fill="none" xmlns="http://www.w3.org/2000/svg">
<path d="M14.9681 11.6222C14.9257 11.4944 14.6557 11.3061 14.1585 11.0577C14.0237 10.9794 13.8318 10.873 13.5834 10.7381C13.3348 10.6031 13.1092 10.4788 12.9069 10.3651C12.7042 10.2515 12.5143 10.1414 12.3368 10.035C12.3085 10.0137 12.2197 9.95167 12.0706 9.84846C11.9213 9.74555 11.7953 9.66917 11.6922 9.61935C11.5892 9.56984 11.4879 9.54491 11.3885 9.54491C11.2465 9.54491 11.0691 9.64618 10.8561 9.84846C10.6431 10.051 10.4477 10.271 10.2702 10.5091C10.0927 10.7472 9.90444 10.9672 9.70577 11.1696C9.50681 11.3721 9.34333 11.4732 9.21563 11.4732C9.15152 11.4732 9.07159 11.4554 8.9758 11.4201C8.88005 11.3846 8.80721 11.3542 8.75721 11.3297C8.70765 11.3047 8.62261 11.2551 8.50178 11.1803C8.38073 11.1057 8.31341 11.0648 8.29923 11.0577C7.32622 10.5178 6.49172 9.89991 5.7956 9.20413C5.09969 8.50793 4.48167 7.67356 3.9419 6.7005C3.93481 6.68629 3.89387 6.61878 3.81935 6.49811C3.74472 6.37733 3.69498 6.29222 3.67012 6.24237C3.64527 6.1927 3.61508 6.11987 3.57963 6.02401C3.54418 5.92815 3.52638 5.8483 3.52638 5.78431C3.52638 5.65654 3.62762 5.49311 3.83006 5.29423C4.03246 5.09546 4.2527 4.90718 4.49055 4.72975C4.72859 4.55232 4.9486 4.35695 5.15108 4.14397C5.35348 3.93087 5.45468 3.7534 5.45468 3.61139C5.45468 3.51202 5.42983 3.41072 5.38016 3.30777C5.33046 3.2046 5.25411 3.0787 5.15108 2.92948C5.04801 2.78034 4.98588 2.69165 4.96454 2.6631C4.85811 2.48568 4.74814 2.29571 4.63437 2.09329C4.52059 1.8909 4.3964 1.6653 4.26139 1.41676C4.1265 1.16832 4.02004 0.976495 3.94182 0.841569C3.69337 0.344516 3.50519 0.0745151 3.37731 0.0320523C3.32757 0.0107463 3.25293 0 3.1536 0C2.96172 0 2.71141 0.0354478 2.40247 0.106567C2.09342 0.177575 1.85023 0.252053 1.67265 0.330299C1.31751 0.479367 0.941105 0.912577 0.543319 1.62978C0.181094 2.29724 0 2.95788 0 3.6112C0 3.80281 0.0124262 3.98923 0.0372785 4.1705C0.0621309 4.35158 0.106537 4.55579 0.170533 4.78311C0.234418 5.01035 0.285951 5.17915 0.324909 5.28908C0.363904 5.39908 0.436707 5.59613 0.543281 5.88031C0.649706 6.16442 0.713703 6.33834 0.73501 6.40225C0.983571 7.0983 1.27833 7.71968 1.61921 8.26659C2.18007 9.17562 2.94545 10.1151 3.91492 11.0845C4.88442 12.0539 5.82373 12.8192 6.7329 13.3803C7.27976 13.7211 7.9014 14.0158 8.59738 14.2646C8.66134 14.2857 8.83527 14.3496 9.11928 14.4564C9.40341 14.5629 9.60054 14.6357 9.71055 14.6747C9.82059 14.7138 9.98945 14.7654 10.2165 14.8294C10.4441 14.8934 10.6481 14.9378 10.8292 14.9628C11.0104 14.9873 11.1969 15 11.3885 15C12.0419 15 12.7026 14.8188 13.3702 14.4566C14.0874 14.059 14.5205 13.6826 14.6696 13.3272C14.7481 13.1498 14.8224 12.9066 14.8934 12.5975C14.9646 12.2886 15 12.0384 15 11.8466C15.0002 11.7468 14.9895 11.6724 14.9681 11.6222Z" fill="white"/>
</svg>
