<svg width="150" height="134" viewBox="0 0 150 134" fill="none" xmlns="http://www.w3.org/2000/svg">
<path d="M144.274 19.598L52.4056 0.156186C48.5188 -0.666125 44.6663 1.8415 43.844 5.72829L42.0986 16.9446L148.099 39.3759L149.844 28.1596C150.666 24.2743 148.16 20.4206 144.274 19.598Z" fill="white"/>
<path d="M105.64 41.7545C104.567 37.8902 100.529 35.6061 96.6661 36.6775L79.2262 41.5189L38.1126 32.8179L33.591 54.182L5.33981 62.0233C1.47703 63.0948 -0.807058 67.1331 0.264275 70.9961L16.1855 128.369C17.2585 132.231 21.2971 134.517 25.1598 133.444L116.486 108.1C120.349 107.027 122.633 102.99 121.562 99.1258L118.829 89.2767L129.071 91.4422C132.958 92.2659 136.811 89.7583 137.633 85.8715L144.113 55.2494L107.219 47.4423L105.64 41.7545ZM116.187 70.9135L118.446 60.2389C118.785 58.6406 120.37 57.6098 121.968 57.9473L132.643 60.2073C134.242 60.5465 135.273 62.1296 134.936 63.7294L132.677 74.404C132.338 76.0023 130.753 77.0347 129.155 76.6957L118.48 74.4371C116.879 74.0967 115.848 72.5118 116.187 70.9135ZM6.92904 67.7486L32.2025 60.7372L91.8352 44.1888L98.2521 42.4059C98.3693 42.3743 98.4862 42.3594 98.6004 42.3594C99.1151 42.3594 99.7306 42.6971 99.9105 43.3439L100.664 46.0572L103.024 54.5632L9.10504 80.6261L5.99104 69.4084C5.79594 68.7045 6.22536 67.9437 6.92904 67.7486ZM115.835 100.713C115.955 101.149 115.829 101.509 115.701 101.734C115.575 101.959 115.332 102.253 114.897 102.373L23.5721 127.717C23.4566 127.749 23.338 127.765 23.2238 127.765C22.7091 127.765 22.0936 127.426 21.9137 126.779L12.6274 93.3147L106.547 67.2503L112.275 87.8897L115.835 100.713Z" fill="white"/>
<path d="M38.3287 103.003C37.8905 101.428 36.2456 100.497 34.6699 100.934L24.0043 103.895C22.4301 104.332 21.4982 105.978 21.9364 107.554L24.8958 118.218C25.334 119.793 26.9789 120.724 28.5546 120.286L39.2202 117.326C40.7959 116.889 41.7263 115.243 41.2895 113.667L38.3287 103.003Z" fill="white"/>
</svg>
