<svg width="100" height="135" viewBox="0 0 100 135" fill="none" xmlns="http://www.w3.org/2000/svg">
<path d="M0 87.3682L5.26316 134.737H94.7368L100 87.3682H0ZM50 114.737C47.0932 114.737 44.7368 112.38 44.7368 109.473C44.7368 106.567 47.0932 104.21 50 104.21C52.9068 104.21 55.2632 106.567 55.2632 109.473C55.2632 112.38 52.9068 114.737 50 114.737Z" fill="white"/>
<path d="M50.0007 0C40.2631 0 32.3691 7.89395 32.3691 17.6316V30C32.3691 39.7376 40.2631 47.6316 50.0007 47.6316C59.7383 47.6316 67.6323 39.7376 67.6323 30V17.6316C67.6323 7.89395 59.7383 0 50.0007 0Z" fill="white"/>
<path d="M49.9998 51.5791C32.1784 51.5791 17.1 63.312 12.0605 79.4738H87.939C82.8995 63.312 67.8211 51.5791 49.9998 51.5791Z" fill="white"/>
</svg>
