<svg width="50" height="49" viewBox="0 0 50 49" fill="none" xmlns="http://www.w3.org/2000/svg">
<g clip-path="url(#clip0)">
<path d="M24.9934 29.4949C24.2369 28.4729 23.4263 27.3303 22.6184 26.1104C21.78 24.8445 20.962 23.5217 20.2175 22.1862C21.6863 22.8482 23.3109 23.2135 24.9991 23.2135C26.6802 23.2135 28.2982 22.8512 29.762 22.1947C29.0216 23.5208 28.2093 24.8349 27.3768 26.0934C26.5658 27.3193 25.7522 28.4679 24.9934 29.4949Z" stroke="white" stroke-width="10"/>
<path d="M23.1746 11.9883C23.1746 10.7451 24.1667 10.0494 24.9984 10.0494C25.8302 10.0494 26.8223 10.7451 26.8223 11.9883C26.8223 13.2315 25.8302 13.9272 24.9984 13.9272C24.1667 13.9272 23.1746 13.2315 23.1746 11.9883Z" stroke="white" stroke-width="10"/>
<mask id="path-4-inside-1" fill="white">
<path d="M32.4036 33.1196C31.3361 34.6068 30.3346 35.9016 29.5003 36.9414C37.7763 37.421 43.2002 39.143 45.218 40.4237C42.8542 41.926 35.8306 44.0379 25.0005 44.0379C14.1715 44.0379 7.14689 41.925 4.78306 40.4237C6.80084 39.143 12.2206 37.4221 20.4882 36.9424C19.6519 35.9026 18.6492 34.6089 17.5808 33.1216C7.39676 34.0879 0 36.9918 0 40.4227C0 44.6445 11.1939 48.0683 25.0005 48.0683C38.8082 48.0683 50 44.6465 50 40.4227C50.0021 36.9898 42.597 34.0849 32.4036 33.1196Z"/>
</mask>
<path d="M32.4036 33.1196L33.3463 23.1642L27.6285 22.6227L24.2795 27.2887L32.4036 33.1196ZM29.5003 36.9414L21.7004 30.6834L9.56942 45.8032L28.9217 46.9247L29.5003 36.9414ZM45.218 40.4237L50.5818 48.8634L63.8703 40.418L50.5767 31.9807L45.218 40.4237ZM4.78306 40.4237L-0.575607 31.9807L-13.8737 40.4208L-0.578223 48.865L4.78306 40.4237ZM20.4882 36.9424L21.0674 46.9257L40.4473 45.8014L28.2804 30.6749L20.4882 36.9424ZM17.5808 33.1216L25.7021 27.2869L22.3521 22.624L16.6362 23.1664L17.5808 33.1216ZM50 40.4227L40 40.4166V40.4227H50ZM24.2795 27.2887C23.3351 28.6045 22.445 29.7554 21.7004 30.6834L37.3001 43.1995C38.2241 42.0478 39.3371 40.6092 40.5276 38.9506L24.2795 27.2887ZM28.9217 46.9247C32.5114 47.1327 35.3253 47.6023 37.3157 48.0923C39.5187 48.6346 40.1772 49.0685 39.8593 48.8667L50.5767 31.9807C48.241 30.4983 45.1786 29.4308 42.0962 28.672C38.8013 27.8609 34.7652 27.2298 30.0788 26.9582L28.9217 46.9247ZM39.8541 31.9839C40.1569 31.7915 39.1705 32.3893 36.227 33.008C33.551 33.5706 29.7803 34.0379 25.0005 34.0379V54.0379C31.0509 54.0379 36.207 53.4493 40.3412 52.5803C44.208 51.7675 47.9153 50.5581 50.5818 48.8634L39.8541 31.9839ZM25.0005 34.0379C20.2217 34.0379 16.4511 33.5704 13.7747 33.0077C10.8313 32.3889 9.84301 31.7909 10.1444 31.9823L-0.578223 48.865C2.08694 50.5577 5.79285 51.7669 9.65997 52.5799C13.7941 53.449 18.9502 54.0379 25.0005 54.0379V34.0379ZM10.1417 48.8667C9.82458 49.068 10.4827 48.6345 12.6831 48.0926C14.6714 47.603 17.482 47.1337 21.0674 46.9257L19.9091 26.9592C15.2268 27.2309 11.1937 27.8618 7.9008 28.6728C4.81999 29.4314 1.75932 30.4987 -0.575607 31.9807L10.1417 48.8667ZM28.2804 30.6749C27.5355 29.7488 26.646 28.6008 25.7021 27.2869L9.45944 38.9564C10.6525 40.6169 11.7682 42.0564 12.6961 43.21L28.2804 30.6749ZM16.6362 23.1664C10.9698 23.704 5.52739 24.8183 1.18923 26.5908C-0.943075 27.4619 -3.34837 28.7077 -5.38674 30.5482C-7.41204 32.3769 -10 35.6899 -10 40.4227H10C10 43.44 8.33664 45.1035 8.01647 45.3925C7.68325 45.6934 7.76364 45.5096 8.75353 45.1051C10.6597 44.3263 14.0077 43.5056 18.5253 43.0769L16.6362 23.1664ZM-10 40.4227C-10 46.2392 -6.17582 49.8527 -3.89412 51.5023C-1.38347 53.3174 1.60507 54.5372 4.39819 55.3914C10.108 57.1377 17.3898 58.0683 25.0005 58.0683V38.0683C18.8047 38.0683 13.5862 37.287 10.2474 36.2659C9.44438 36.0203 8.8325 35.7856 8.39372 35.587C7.9395 35.3814 7.78285 35.265 7.82368 35.2945C7.83889 35.3055 8.30608 35.6357 8.81861 36.4016C9.37858 37.2383 10 38.626 10 40.4227H-10ZM25.0005 58.0683C32.6111 58.0683 39.8927 57.1383 45.6025 55.3923C48.3956 54.5381 51.3844 53.3182 53.8954 51.5025C56.1787 49.8513 60 46.2375 60 40.4227H40C40 38.6277 40.6205 37.2408 41.1803 36.4039C41.6928 35.6378 42.1601 35.3073 42.1757 35.296C42.2168 35.2662 42.0606 35.3825 41.6067 35.588C41.1682 35.7865 40.5566 36.0211 39.7538 36.2666C36.4157 37.2874 31.1976 38.0683 25.0005 38.0683V58.0683ZM60 40.4288C60.0029 35.6914 57.4121 32.3754 55.3855 30.546C53.3458 28.7048 50.9387 27.4589 48.8051 26.5877C44.464 24.8153 39.0172 23.7012 33.3463 23.1642L31.4608 43.0751C35.9833 43.5034 39.3358 44.3243 41.2451 45.1039C42.2367 45.5087 42.3176 45.693 41.9843 45.3922C41.6641 45.1031 39.9982 43.4375 40 40.4166L60 40.4288Z" fill="white" mask="url(#path-4-inside-1)"/>
</g>
<defs>
<clipPath id="clip0">
<rect width="50" height="48.1882" fill="white"/>
</clipPath>
</defs>
</svg>
