<svg width="15" height="15" viewBox="0 0 15 15" fill="none" xmlns="http://www.w3.org/2000/svg">
<g clip-path="url(#clip0)">
<path d="M14.6666 13.0348L11.5746 9.94302C12.3198 8.86738 12.6925 7.66825 12.6925 6.34628C12.6925 5.48691 12.5257 4.66503 12.192 3.88081C11.8586 3.09646 11.4078 2.42041 10.8399 1.8525C10.272 1.28459 9.59603 0.833821 8.81184 0.500343C8.0274 0.166771 7.20558 0 6.34621 0C5.48691 0 4.66503 0.166771 3.88081 0.500343C3.09646 0.833821 2.42041 1.28459 1.8525 1.8525C1.28453 2.42041 0.833821 3.09659 0.500312 3.88081C0.166771 4.66512 0 5.48691 0 6.34628C0 7.20558 0.166771 8.02718 0.500312 8.81162C0.833789 9.59584 1.28453 10.2718 1.8525 10.8397C2.42041 11.4078 3.09659 11.8584 3.88081 12.1921C4.66512 12.5256 5.48691 12.6923 6.34621 12.6923C7.66848 12.6923 8.86741 12.3195 9.94312 11.5744L13.0351 14.6573C13.2514 14.8856 13.5215 14.9998 13.8463 14.9998C14.1588 14.9998 14.4293 14.8856 14.6575 14.6573C14.8858 14.429 15 14.1586 15 13.8461C15.0001 13.5278 14.889 13.2572 14.6666 13.0348ZM9.19931 9.19906C8.40906 9.98943 7.4581 10.3846 6.34621 10.3846C5.23452 10.3846 4.28356 9.98934 3.49325 9.19906C2.70293 8.40881 2.30779 7.45798 2.30779 6.34609C2.30779 5.23439 2.70303 4.28327 3.49325 3.49312C4.2834 2.70277 5.23452 2.30767 6.34621 2.30767C7.45798 2.30767 8.40893 2.70293 9.19931 3.49312C9.98969 4.28327 10.3848 5.23439 10.3848 6.34609C10.3848 7.45798 9.98956 8.40881 9.19931 9.19906Z" fill="#414141"/>
</g>
<defs>
<clipPath id="clip0">
<rect width="15" height="15" fill="white"/>
</clipPath>
</defs>
</svg>
