<svg width="50" height="49" viewBox="0 0 50 49" fill="none" xmlns="http://www.w3.org/2000/svg">
<mask id="path-2-inside-1" fill="white">
<path d="M32.4618 36.1157H19.9592C17.6916 36.1157 15.8428 34.3339 15.8428 32.1484V17.4409C15.8428 15.2555 17.6916 13.4736 19.9592 13.4736H44.9643C47.2319 13.4736 49.0808 15.2555 49.0808 17.4409V32.1484C49.0808 34.3339 47.2319 36.1157 44.9643 36.1157H30.7968"/>
</mask>
<path d="M32.4618 34.1157H19.9592V38.1157H32.4618V34.1157ZM19.9592 34.1157C18.7259 34.1157 17.8428 33.1604 17.8428 32.1484H13.8428C13.8428 35.5074 16.6572 38.1157 19.9592 38.1157V34.1157ZM17.8428 32.1484V17.4409H13.8428V32.1484H17.8428ZM17.8428 17.4409C17.8428 16.429 18.726 15.4736 19.9592 15.4736V11.4736C16.6572 11.4736 13.8428 14.082 13.8428 17.4409H17.8428ZM19.9592 15.4736H44.9643V11.4736H19.9592V15.4736ZM44.9643 15.4736C46.1976 15.4736 47.0808 16.429 47.0808 17.4409H51.0808C51.0808 14.082 48.2663 11.4736 44.9643 11.4736V15.4736ZM47.0808 17.4409V32.1484H51.0808V17.4409H47.0808ZM47.0808 32.1484C47.0808 33.1604 46.1976 34.1157 44.9643 34.1157V38.1157C48.2663 38.1157 51.0808 35.5074 51.0808 32.1484H47.0808ZM44.9643 34.1157H30.7968V38.1157H44.9643V34.1157Z" fill="#06122F" mask="url(#path-2-inside-1)"/>
<mask id="path-4-inside-2" fill="white">
<path d="M19.9586 37.0015H44.9637C47.7421 37.0015 49.9995 34.8259 49.9995 32.1384V17.4408C49.9995 14.7631 47.7421 12.5776 44.9637 12.5776H19.9586C17.1803 12.5776 14.9229 14.7532 14.9229 17.4408V32.1483C14.9127 34.8259 17.1803 37.0015 19.9586 37.0015ZM16.7717 17.4408C16.7717 15.7475 18.2017 14.3693 19.9586 14.3693H44.9637C46.7206 14.3693 48.1507 15.7475 48.1507 17.4408V32.1483C48.1507 33.8415 46.7206 35.2197 44.9637 35.2197H30.7962H19.9586C18.2017 35.2197 16.7717 33.8415 16.7717 32.1483V17.4408Z"/>
</mask>
<path d="M14.9229 32.1483L16.9229 32.1559V32.1483H14.9229ZM19.9586 39.0015H44.9637V35.0015H19.9586V39.0015ZM44.9637 39.0015C48.7791 39.0015 51.9995 35.9968 51.9995 32.1384H47.9995C47.9995 33.655 46.7051 35.0015 44.9637 35.0015V39.0015ZM51.9995 32.1384V17.4408H47.9995V32.1384H51.9995ZM51.9995 17.4408C51.9995 13.5948 48.7818 10.5776 44.9637 10.5776V14.5776C46.7024 14.5776 47.9995 15.9314 47.9995 17.4408H51.9995ZM44.9637 10.5776H19.9586V14.5776H44.9637V10.5776ZM19.9586 10.5776C16.1433 10.5776 12.9229 13.5823 12.9229 17.4408H16.9229C16.9229 15.9242 18.2173 14.5776 19.9586 14.5776V10.5776ZM12.9229 17.4408V32.1483H16.9229V17.4408H12.9229ZM12.9229 32.1406C12.9082 36.0046 16.1531 39.0015 19.9586 39.0015V35.0015C18.2075 35.0015 16.9172 33.6473 16.9229 32.1559L12.9229 32.1406ZM18.7717 17.4408C18.7717 16.921 19.2361 16.3693 19.9586 16.3693V12.3693C17.1674 12.3693 14.7717 14.574 14.7717 17.4408H18.7717ZM19.9586 16.3693H44.9637V12.3693H19.9586V16.3693ZM44.9637 16.3693C45.6863 16.3693 46.1507 16.921 46.1507 17.4408H50.1507C50.1507 14.574 47.755 12.3693 44.9637 12.3693V16.3693ZM46.1507 17.4408V32.1483H50.1507V17.4408H46.1507ZM46.1507 32.1483C46.1507 32.668 45.6863 33.2197 44.9637 33.2197V37.2197C47.755 37.2197 50.1507 35.015 50.1507 32.1483H46.1507ZM44.9637 33.2197H30.7962V37.2197H44.9637V33.2197ZM30.7962 33.2197H19.9586V37.2197H30.7962V33.2197ZM19.9586 33.2197C19.2361 33.2197 18.7717 32.668 18.7717 32.1483H14.7717C14.7717 35.015 17.1674 37.2197 19.9586 37.2197V33.2197ZM18.7717 32.1483V17.4408H14.7717V32.1483H18.7717Z" fill="#06122F" mask="url(#path-4-inside-2)"/>
<mask id="path-6-inside-3" fill="white">
<path d="M19.9896 32.1778C20.1734 32.3747 20.4288 32.483 20.6841 32.483C20.8986 32.483 21.1234 32.4141 21.297 32.2566L29.295 25.464L31.8895 27.4033C32.0529 27.5313 32.2572 27.5903 32.4615 27.5903C32.6658 27.5903 32.8598 27.5313 33.0335 27.4033L35.7097 25.4049L43.6259 32.2467C43.7996 32.4042 44.0243 32.4731 44.2388 32.4731C44.4942 32.4731 44.7495 32.3747 44.9334 32.1778C45.2705 31.8136 45.2398 31.2426 44.8619 30.9177L37.201 24.2925L44.821 18.5926C45.2296 18.2874 45.3011 17.7263 44.9845 17.3423C44.6678 16.9486 44.0856 16.8797 43.6872 17.1848L32.4615 25.5821L29.8261 23.6034L21.2562 17.1947C20.8476 16.8895 20.2756 16.9584 19.9589 17.3522C19.6423 17.746 19.7138 18.2972 20.1223 18.6024L27.8139 24.3614L20.0815 30.9276C19.6831 31.2524 19.6525 31.8136 19.9896 32.1778Z"/>
</mask>
<path d="M19.9896 32.1778L18.5217 33.5363L18.5278 33.5428L19.9896 32.1778ZM21.297 32.2566L20.0023 30.7322L19.9775 30.7533L19.9533 30.7752L21.297 32.2566ZM29.295 25.464L30.4924 23.862L29.2154 22.9075L28.0003 23.9395L29.295 25.464ZM31.8895 27.4033L33.1225 25.8286L33.1048 25.8148L33.0869 25.8014L31.8895 27.4033ZM33.0335 27.4033L34.2201 29.0133L34.2301 29.0058L33.0335 27.4033ZM35.7097 25.4049L37.0175 23.8917L35.8012 22.8405L34.513 23.8024L35.7097 25.4049ZM43.6259 32.2467L44.9696 30.7654L44.9519 30.7492L44.9337 30.7336L43.6259 32.2467ZM44.9334 32.1778L46.3951 33.5429L46.4013 33.5362L44.9334 32.1778ZM44.8619 30.9177L43.5536 32.4305L43.5582 32.4344L44.8619 30.9177ZM37.201 24.2925L36.003 22.6909L34.013 24.1796L35.8927 25.8052L37.201 24.2925ZM44.821 18.5926L43.6242 16.9902L43.6231 16.9911L44.821 18.5926ZM44.9845 17.3423L43.4259 18.5957L43.4336 18.6053L43.4415 18.6149L44.9845 17.3423ZM43.6872 17.1848L44.8852 18.7863L44.8944 18.7795L44.9035 18.7725L43.6872 17.1848ZM32.4615 25.5821L31.2606 27.1814L32.4592 28.0814L33.6595 27.1836L32.4615 25.5821ZM29.8261 23.6034L31.027 22.004L31.0239 22.0017L29.8261 23.6034ZM21.2562 17.1947L22.4539 15.593L22.453 15.5923L21.2562 17.1947ZM20.1223 18.6024L21.3211 17.0015L21.3192 17.0001L20.1223 18.6024ZM27.8139 24.3614L29.1084 25.8859L31.0195 24.2631L29.0126 22.7604L27.8139 24.3614ZM20.0815 30.9276L21.3455 32.4775L21.3609 32.465L21.3761 32.4521L20.0815 30.9276ZM18.5278 33.5428C19.0885 34.1432 19.8725 34.483 20.6841 34.483V30.483C20.985 30.483 21.2584 30.6062 21.4513 30.8128L18.5278 33.5428ZM20.6841 34.483C21.3083 34.483 22.0393 34.2835 22.6407 33.7379L19.9533 30.7752C20.2074 30.5447 20.489 30.483 20.6841 30.483V34.483ZM22.5917 33.781L30.5896 26.9884L28.0003 23.9395L20.0023 30.7322L22.5917 33.781ZM28.0975 27.0659L30.692 29.0052L33.0869 25.8014L30.4924 23.862L28.0975 27.0659ZM30.6564 28.978C31.2256 29.4237 31.8837 29.5903 32.4615 29.5903V25.5903C32.6307 25.5903 32.8802 25.6389 33.1225 25.8286L30.6564 28.978ZM32.4615 29.5903C33.0737 29.5903 33.6876 29.4057 34.22 29.0133L31.8469 25.7933C31.9309 25.7314 32.0325 25.6775 32.1472 25.6407C32.2611 25.6041 32.3689 25.5903 32.4615 25.5903V29.5903ZM34.2301 29.0058L36.9063 27.0074L34.513 23.8024L31.8368 25.8008L34.2301 29.0058ZM34.4019 26.9181L42.3181 33.7599L44.9337 30.7336L37.0175 23.8917L34.4019 26.9181ZM42.2822 33.7281C42.8836 34.2736 43.6147 34.4731 44.2388 34.4731V30.4731C44.4339 30.4731 44.7155 30.5349 44.9696 30.7654L42.2822 33.7281ZM44.2388 34.4731C44.9984 34.4731 45.8003 34.1798 46.3951 33.5428L43.4716 30.8128C43.6988 30.5696 43.9899 30.4731 44.2388 30.4731V34.4731ZM46.4013 33.5362C47.5047 32.3439 47.4068 30.468 46.1656 29.401L43.5582 32.4344C43.0728 32.0172 43.0363 31.2832 43.4655 30.8194L46.4013 33.5362ZM46.1701 29.405L38.5093 22.7797L35.8927 25.8052L43.5536 32.4305L46.1701 29.405ZM38.399 25.894L46.019 20.1941L43.6231 16.9911L36.003 22.6909L38.399 25.894ZM46.0179 20.1949C47.3131 19.2275 47.5933 17.3622 46.5274 16.0698L43.4415 18.6149C43.0089 18.0903 43.1461 17.3473 43.6242 16.9902L46.0179 20.1949ZM46.543 16.089C45.5457 14.8487 43.7315 14.6315 42.4709 15.5972L44.9035 18.7725C44.4396 19.1278 43.79 19.0484 43.4259 18.5957L46.543 16.089ZM42.4892 15.5833L31.2635 23.9806L33.6595 27.1836L44.8852 18.7863L42.4892 15.5833ZM33.6623 23.9827L31.027 22.004L28.6253 25.2027L31.2606 27.1814L33.6623 23.9827ZM31.0239 22.0017L22.4539 15.593L20.0584 18.7964L28.6284 25.205L31.0239 22.0017ZM22.453 15.5923C21.198 14.6549 19.4044 14.8502 18.4003 16.0989L21.5175 18.6055C21.1467 19.0666 20.4971 19.1241 20.0593 18.797L22.453 15.5923ZM18.4003 16.0989C17.3651 17.3862 17.6208 19.2303 18.9255 20.2048L21.3192 17.0001C21.8067 17.3642 21.9194 18.1057 21.5175 18.6055L18.4003 16.0989ZM18.9236 20.2034L26.6152 25.9623L29.0126 22.7604L21.3211 17.0015L18.9236 20.2034ZM26.5193 22.8369L18.7869 29.4031L21.3761 32.4521L29.1084 25.8859L26.5193 22.8369ZM18.8175 29.3776C17.5177 30.4376 17.4074 32.3322 18.5217 33.5362L21.4574 30.8194C21.8976 31.295 21.8486 32.0673 21.3455 32.4775L18.8175 29.3776Z" fill="#06122F" mask="url(#path-6-inside-3)"/>
<mask id="path-8-inside-4" fill="white">
<path d="M12.0125 25.6901C12.5232 25.6901 12.942 25.2865 12.942 24.7943C12.942 24.3021 12.5232 23.8984 12.0125 23.8984H4.65804C4.14731 23.8984 3.72852 24.3021 3.72852 24.7943C3.72852 25.2865 4.14731 25.6901 4.65804 25.6901H12.0125Z"/>
</mask>
<path d="M12.0125 27.6901C13.5575 27.6901 14.942 26.46 14.942 24.7943H10.942C10.942 24.113 11.4889 23.6901 12.0125 23.6901V27.6901ZM14.942 24.7943C14.942 23.1286 13.5576 21.8984 12.0125 21.8984V25.8984C11.4889 25.8984 10.942 25.4756 10.942 24.7943H14.942ZM12.0125 21.8984H4.65804V25.8984H12.0125V21.8984ZM4.65804 21.8984C3.11296 21.8984 1.72852 23.1286 1.72852 24.7943H5.72852C5.72852 25.4756 5.18166 25.8984 4.65804 25.8984V21.8984ZM1.72852 24.7943C1.72852 26.46 3.11296 27.6901 4.65804 27.6901V23.6901C5.18166 23.6901 5.72852 24.113 5.72852 24.7943H1.72852ZM4.65804 27.6901H12.0125V23.6901H4.65804V27.6901Z" fill="#06122F" mask="url(#path-8-inside-4)"/>
<mask id="path-10-inside-5" fill="white">
<path d="M0.92952 20.9748H12.0123C12.523 20.9748 12.9418 20.5712 12.9418 20.0789C12.9418 19.5867 12.523 19.1831 12.0123 19.1831H0.92952C0.418795 19.1831 0 19.5867 0 20.0789C0.0102145 20.5712 0.418795 20.9748 0.92952 20.9748Z"/>
</mask>
<path d="M0 20.0789H-2V20.0997L-1.99957 20.1204L0 20.0789ZM0.92952 22.9748H12.0123V18.9748H0.92952V22.9748ZM12.0123 22.9748C13.5573 22.9748 14.9418 21.7447 14.9418 20.0789H10.9418C10.9418 19.3977 11.4886 18.9748 12.0123 18.9748V22.9748ZM14.9418 20.0789C14.9418 18.4132 13.5573 17.1831 12.0123 17.1831V21.1831C11.4886 21.1831 10.9418 20.7602 10.9418 20.0789H14.9418ZM12.0123 17.1831H0.92952V21.1831H12.0123V17.1831ZM0.92952 17.1831C-0.615555 17.1831 -2 18.4132 -2 20.0789H2C2 20.7602 1.45314 21.1831 0.92952 21.1831V17.1831ZM-1.99957 20.1204C-1.96644 21.7167 -0.653612 22.9748 0.92952 22.9748V18.9748C1.4912 18.9748 1.98687 19.4256 1.99957 20.0374L-1.99957 20.1204Z" fill="#06122F" mask="url(#path-10-inside-5)"/>
<mask id="path-12-inside-6" fill="white">
<path d="M12.9419 29.5101C12.9419 29.0179 12.5231 28.6143 12.0124 28.6143H7.17073C6.66001 28.6143 6.24121 29.0179 6.24121 29.5101C6.24121 30.0023 6.66001 30.4059 7.17073 30.4059H12.0124C12.5231 30.4059 12.9419 30.0023 12.9419 29.5101Z"/>
</mask>
<path d="M14.9419 29.5101C14.9419 27.8444 13.5575 26.6143 12.0124 26.6143V30.6143C11.4888 30.6143 10.9419 30.1914 10.9419 29.5101H14.9419ZM12.0124 26.6143H7.17073V30.6143H12.0124V26.6143ZM7.17073 26.6143C5.62566 26.6143 4.24121 27.8444 4.24121 29.5101H8.24121C8.24121 30.1914 7.69435 30.6143 7.17073 30.6143V26.6143ZM4.24121 29.5101C4.24121 31.1758 5.62567 32.4059 7.17073 32.4059V28.4059C7.69435 28.4059 8.24121 28.8288 8.24121 29.5101H4.24121ZM7.17073 32.4059H12.0124V28.4059H7.17073V32.4059ZM12.0124 32.4059C13.5575 32.4059 14.9419 31.1758 14.9419 29.5101H10.9419C10.9419 28.8288 11.4888 28.4059 12.0124 28.4059V32.4059Z" fill="#06122F" mask="url(#path-12-inside-6)"/>
</svg>
