<svg width="13" height="18" viewBox="0 0 13 18" fill="none" xmlns="http://www.w3.org/2000/svg">
<path d="M6.50079 8.62892C8.40119 8.62892 9.94191 6.69729 9.94191 4.31448C9.94191 1.93163 9.43607 0 6.50079 0C3.56551 0 3.05957 1.93163 3.05957 4.31448C3.05957 6.69729 4.60029 8.62892 6.50079 8.62892Z" fill="white"/>
<path d="M12.9917 15.0423C12.9279 10.8914 12.4028 9.70866 8.3839 8.95996C8.3839 8.95996 7.81818 9.70407 6.49962 9.70407C5.18105 9.70407 4.61523 8.95996 4.61523 8.95996C0.640238 9.70049 0.0831187 10.8657 0.00986483 14.9075C0.00385802 15.2375 0.00107439 15.2549 0 15.2166C0.000244179 15.2883 0.000537086 15.4211 0.000537086 15.6527C0.000537086 15.6527 0.957329 17.6437 6.49962 17.6437C12.0418 17.6437 12.9987 15.6527 12.9987 15.6527C12.9987 15.5039 12.9988 15.4005 12.9989 15.3301C12.9979 15.3538 12.9957 15.3079 12.9917 15.0423Z" fill="white"/>
</svg>
