<svg width="51" height="49" viewBox="0 0 51 49" fill="none" xmlns="http://www.w3.org/2000/svg">
<ellipse cx="25.5" cy="24.2308" rx="25.5" ry="24.0941" fill="#06122F"/>
<g clip-path="url(#clip0)">
<mask id="path-3-inside-1" fill="white">
<path d="M33.7253 16.3524C33.6348 16.2925 33.5102 16.2833 33.4077 16.3288L14.8794 24.5687C14.7797 24.613 14.7188 24.7013 14.7229 24.7956C14.727 24.8899 14.7953 24.9735 14.8987 25.0104L20.3838 26.9712C20.4844 27.0072 20.6011 26.9927 20.6858 26.9337L25.7144 23.4311L21.821 27.1452C21.7655 27.1982 21.7396 27.2685 21.75 27.3382L22.4077 31.7666C22.4223 31.8647 22.5059 31.9454 22.6196 31.9711C22.6501 31.978 22.681 31.9806 22.7115 31.9792C22.7949 31.9754 22.8743 31.9417 22.9277 31.8844L25.6176 28.9912L29.2144 30.2396C29.2925 30.2667 29.381 30.2639 29.457 30.2321C29.5329 30.2003 29.5889 30.1425 29.6105 30.0737L33.8258 16.6057C33.8552 16.5116 33.8158 16.4123 33.7253 16.3524Z"/>
</mask>
<path d="M33.7253 16.3524L35.8424 13.034L35.8414 13.0333L33.7253 16.3524ZM33.4077 16.3288L31.7982 12.6856L31.7961 12.6866L33.4077 16.3288ZM14.8794 24.5687L13.2678 20.9264L13.2674 20.9266L14.8794 24.5687ZM14.8987 25.0104L16.1626 21.2644L16.1625 21.2644L14.8987 25.0104ZM20.3838 26.9712L21.6486 23.2256L21.6477 23.2253L20.3838 26.9712ZM20.6858 26.9337L22.9326 30.2178L22.9328 30.2177L20.6858 26.9337ZM25.7144 23.4311L28.4197 26.3405L23.4674 20.1472L25.7144 23.4311ZM21.821 27.1452L19.1157 24.2358L19.1152 24.2363L21.821 27.1452ZM21.75 27.3382L25.6267 26.7933L25.6266 26.7927L21.75 27.3382ZM22.4077 31.7666L18.531 32.3114L18.5311 32.3123L22.4077 31.7666ZM22.6196 31.9711L21.809 35.8489L21.8129 35.8498L22.6196 31.9711ZM22.9277 31.8844L25.7956 34.6291L25.7962 34.6284L22.9277 31.8844ZM25.6176 28.9912L26.8471 25.2332L24.4616 24.4052L22.749 26.2472L25.6176 28.9912ZM29.2144 30.2396L30.4441 26.4816L30.444 26.4816L29.2144 30.2396ZM29.457 30.2321L30.9911 33.9078L30.9931 33.907L29.457 30.2321ZM29.6105 30.0737L33.3487 31.3173L33.3488 31.3171L29.6105 30.0737ZM33.8258 16.6057L30.0878 15.3611L30.0874 15.3623L33.8258 16.6057ZM35.8414 13.0333C34.5728 12.1933 33.04 12.1343 31.7982 12.6856L35.0172 19.972C33.9805 20.4323 32.6968 20.3916 31.6092 19.6715L35.8414 13.0333ZM31.7961 12.6866L13.2678 20.9264L16.491 28.2109L35.0193 19.9711L31.7961 12.6866ZM13.2674 20.9266C12.032 21.4762 10.7172 22.8675 10.8061 24.9215L18.6397 24.6697C18.7204 26.5352 17.5274 27.7499 16.4915 28.2107L13.2674 20.9266ZM10.8061 24.9215C10.8954 26.9862 12.3404 28.2936 13.6348 28.7563L16.1625 21.2644C17.2503 21.6533 18.5585 22.7936 18.6397 24.6697L10.8061 24.9215ZM13.6348 28.7563L19.1199 30.7172L21.6477 23.2253L16.1626 21.2644L13.6348 28.7563ZM19.1191 30.7169C20.3633 31.162 21.7901 31.0135 22.9326 30.2178L18.439 23.6497C19.4121 22.9719 20.6055 22.8524 21.6486 23.2256L19.1191 30.7169ZM22.9328 30.2177L27.9613 26.7151L23.4674 20.1472L18.4389 23.6498L22.9328 30.2177ZM23.0091 20.5218L19.1157 24.2358L24.5263 30.0546L28.4197 26.3405L23.0091 20.5218ZM19.1152 24.2363C18.2495 25.0625 17.6498 26.3801 17.8733 27.8837L25.6266 26.7927C25.8294 28.1569 25.2815 29.3339 24.5269 30.0541L19.1152 24.2363ZM17.8733 27.8831L18.531 32.3114L26.2844 31.2217L25.6267 26.7933L17.8733 27.8831ZM18.5311 32.3123C18.8444 34.4182 20.4845 35.5489 21.809 35.8489L23.4303 28.0933C24.5272 28.3418 26.0003 29.3112 26.2843 31.2209L18.5311 32.3123ZM21.8129 35.8498C22.1895 35.9347 22.5672 35.9659 22.935 35.9492L22.488 28.0093C22.7949 27.9953 23.1106 28.0213 23.4264 28.0925L21.8129 35.8498ZM22.935 35.9492C23.8915 35.9056 24.9664 35.5205 25.7956 34.6291L20.0598 29.1396C20.7823 28.3629 21.6983 28.0453 22.488 28.0093L22.935 35.9492ZM25.7962 34.6284L28.4861 31.7353L22.749 26.2472L20.0592 29.1403L25.7962 34.6284ZM24.388 32.7493L27.9849 33.9976L30.444 26.4816L26.8471 25.2332L24.388 32.7493ZM27.9848 33.9976C28.9732 34.3407 30.044 34.3043 30.9911 33.9078L27.9228 26.5564C28.718 26.2235 29.6118 26.1927 30.4441 26.4816L27.9848 33.9976ZM30.9931 33.907C31.9398 33.51 32.9268 32.6651 33.3487 31.3173L25.8722 28.8301C26.251 27.6199 27.1261 26.8905 27.9208 26.5573L30.9931 33.907ZM33.3488 31.3171L37.5641 17.8491L30.0874 15.3623L25.8721 28.8303L33.3488 31.3171ZM37.5637 17.8503C38.1995 15.8213 37.2126 13.9419 35.8424 13.034L31.6082 19.6708C30.419 18.8828 29.511 17.202 30.0878 15.3611L37.5637 17.8503Z" fill="white" mask="url(#path-3-inside-1)"/>
</g>
<defs>
<clipPath id="clip0">
<rect width="20.3623" height="19.2756" transform="matrix(0.98443 -0.175776 0.018771 0.999824 14.2803 16.459)" fill="white"/>
</clipPath>
</defs>
</svg>
