<svg width="120" height="112" viewBox="0 0 120 112" fill="none" xmlns="http://www.w3.org/2000/svg">
<path d="M119.389 0.445161C118.855 -0.0233583 118.095 -0.132058 117.45 0.166776L1.03795 54.2553C0.411228 54.5466 0.00764076 55.1719 0.000107135 55.8629C-0.00742649 56.5538 0.382887 57.1877 1.00351 57.4923L33.9481 73.6601C34.5522 73.9568 35.2725 73.8897 35.8121 73.4865L67.8433 49.5461L42.6975 75.4115C42.3387 75.7807 42.1558 76.2861 42.1952 76.7992L44.6989 109.405C44.7545 110.128 45.2388 110.745 45.9272 110.972C46.1113 111.032 46.3003 111.061 46.4872 111.061C46.9999 111.061 47.4985 110.841 47.8454 110.44L65.3313 90.1771L86.9475 100.505C87.4167 100.73 87.9598 100.739 88.4366 100.532C88.9134 100.324 89.2764 99.9199 89.4321 99.4241L119.917 2.33108C120.131 1.65305 119.923 0.913681 119.389 0.445161Z" fill="white"/>
</svg>
